<?xml version="1.0" encoding="UTF-8"?>
<svg width="78px" height="78px" viewBox="0 0 78 78" version="1.1" xmlns="http://www.w3.org/2000/svg" xmlns:xlink="http://www.w3.org/1999/xlink">
    <title>Fill 1</title>
    <g id="Page-1" stroke="none" stroke-width="1" fill="none" fill-rule="evenodd">
        <g id="MacBook-Air-13&quot;" transform="translate(-200, -91)" fill="#FFFFFF">
            <path d="M270.774548,91.0158569 L238.600935,91.0158569 L238.569221,103.215084 L238.569221,156.837772 L237.480382,156.837772 C235.218134,156.837772 233.463306,156.621061 232.332181,154.311242 L225.233584,139.25249 C224.482866,137.585562 223.222244,136.199036 221.634072,135.293556 L221.634072,135.076845 C224.720878,134.416141 233.791014,128.59138 233.791014,114.521041 C233.791014,99.7952836 224.430169,91 211.062818,91 L200.015857,91 L200.015857,103.172799 L209.387274,103.172799 C215.973165,103.172799 219.958528,107.570441 219.958528,115.266314 C219.958528,123.0679 215.946737,127.57654 209.154706,127.57654 L200,127.634682 L200,139.886766 L205.248628,139.886766 C209.054279,139.886766 210.597682,140.415328 212.119943,143.512706 L221.480789,163.18581 C223.84875,168.133157 226.237853,169 231.671478,169 L252,169 L252,103.199227 L263.216101,103.199227 C264.659077,103.199227 265.478349,104.081927 265.478349,105.620045 L265.478349,110.345395 L277.312868,110.345395 L277.312868,98.0351697 C277.312868,92.871112 275.669038,91 270.726977,91" id="Fill-1"></path>
        </g>
    </g>
</svg>