<?xml version="1.0" encoding="UTF-8"?>
<svg width="29px" height="28px" viewBox="0 0 29 28" version="1.1" xmlns="http://www.w3.org/2000/svg" xmlns:xlink="http://www.w3.org/1999/xlink">
    <title>Fill 1</title>
    <g id="Page-1" stroke="none" stroke-width="1" fill="none" fill-rule="evenodd">
        <g id="MacBook-Air-13&quot;" transform="translate(-1361, -839)" fill="#8E9DB2">
            <path d="M1386.96578,839.005692 L1375.41628,839.005692 L1375.40489,843.384902 L1375.40489,862.634072 L1375.01403,862.634072 C1374.20194,862.634072 1373.572,862.556278 1373.16596,861.727113 L1370.61774,856.321407 C1370.34825,855.723022 1369.89572,855.225295 1369.32561,854.900251 L1369.32561,854.822457 C1370.43369,854.585282 1373.68964,852.494342 1373.68964,847.443451 C1373.68964,842.157281 1370.32934,839 1365.5308,839 L1361.56522,839 L1361.56522,843.369723 L1364.92932,843.369723 C1367.29349,843.369723 1368.72413,844.948363 1368.72413,847.710985 C1368.72413,850.511554 1367.284,852.13004 1364.84584,852.13004 L1361.55953,852.150911 L1361.55953,856.549095 L1363.44365,856.549095 C1364.80979,856.549095 1365.36383,856.738836 1365.91028,857.850715 L1369.27058,864.912855 C1370.12062,866.688826 1370.97825,867 1372.92878,867 L1380.2262,867 L1380.2262,843.37921 L1384.25249,843.37921 C1384.77048,843.37921 1385.06458,843.696076 1385.06458,844.248221 L1385.06458,845.944501 L1389.31287,845.944501 L1389.31287,841.525446 C1389.31287,839.671681 1388.72278,839 1386.9487,839" id="Fill-1"></path>
        </g>
    </g>
</svg>